<?xml version="1.0" encoding="UTF-8" standalone="no"?>
<!-- Created with Inkscape (http://www.inkscape.org/) -->

<svg
   xmlns:dc="http://purl.org/dc/elements/1.1/"
   xmlns:cc="http://creativecommons.org/ns#"
   xmlns:rdf="http://www.w3.org/1999/02/22-rdf-syntax-ns#"
   xmlns:svg="http://www.w3.org/2000/svg"
   xmlns="http://www.w3.org/2000/svg"
   xmlns:sodipodi="http://sodipodi.sourceforge.net/DTD/sodipodi-0.dtd"
   xmlns:inkscape="http://www.inkscape.org/namespaces/inkscape"
   width="210mm"
   height="297mm"
   viewBox="0 0 744.09448819 1052.3622047"
   id="svg2"
   version="1.1"
   inkscape:version="0.91 r13725"
   sodipodi:docname="polepy_02.svg">
  <defs
     id="defs4" />
  <sodipodi:namedview
     id="base"
     pagecolor="#ffffff"
     bordercolor="#666666"
     borderopacity="1.0"
     inkscape:pageopacity="0.0"
     inkscape:pageshadow="2"
     inkscape:zoom="0.52548447"
     inkscape:cx="372.04724"
     inkscape:cy="526.1811"
     inkscape:document-units="px"
     inkscape:current-layer="layer1"
     showgrid="false"
     inkscape:window-width="1276"
     inkscape:window-height="755"
     inkscape:window-x="4"
     inkscape:window-y="0"
     inkscape:window-maximized="1" />
  <metadata
     id="metadata7">
    <rdf:RDF>
      <cc:Work
         rdf:about="">
        <dc:format>image/svg+xml</dc:format>
        <dc:type
           rdf:resource="http://purl.org/dc/dcmitype/StillImage" />
        <dc:title></dc:title>
      </cc:Work>
    </rdf:RDF>
  </metadata>
  <g
     inkscape:label="Vrstva 1"
     inkscape:groupmode="layer"
     id="layer1">
    <text
       xml:space="preserve"
       style="font-style:normal;font-weight:normal;font-size:40px;line-height:125%;font-family:sans-serif;letter-spacing:0px;word-spacing:0px;fill:#000000;fill-opacity:1;stroke:none;stroke-width:1px;stroke-linecap:butt;stroke-linejoin:miter;stroke-opacity:1"
       x="298.57144"
       y="998.07648"
       id="text8122"
       sodipodi:linespacing="125%"><tspan
         sodipodi:role="line"
         id="tspan8124"
         x="298.57144"
         y="998.07648" /></text>
    <rect
       y="859.51202"
       x="96.750542"
       height="120.47244"
       width="566.92914"
       id="rect8100"
       style="opacity:1;fill:none;fill-opacity:1;stroke:#000000;stroke-width:1;stroke-miterlimit:4;stroke-dasharray:none;stroke-dashoffset:0;stroke-opacity:1" />
    <ellipse
       ry="20.757372"
       rx="20.75737"
       cy="920.24823"
       cx="147.62852"
       id="ellipse8102"
       style="opacity:1;fill:none;fill-opacity:1;stroke:#000000;stroke-width:1.005;stroke-miterlimit:4;stroke-dasharray:none;stroke-dashoffset:0;stroke-opacity:1" />
    <g
       style="font-style:normal;font-variant:normal;font-weight:normal;font-stretch:normal;font-size:40px;line-height:125%;font-family:'Yuanti SC';-inkscape-font-specification:'Yuanti SC';letter-spacing:0px;word-spacing:0px;fill:#000000;fill-opacity:1;stroke:none;stroke-width:1px;stroke-linecap:butt;stroke-linejoin:miter;stroke-opacity:1"
       id="text8118">
      <path
         d="m 334.49159,925.67328 q 0,2.35 -0.4,4.55 -0.4,2.2 -1.65,3.95 -1.2,1.75 -3.55,2.8 -2.3,1.05 -6.15,1.05 -2.85,0 -4.85,-0.85 -2,-0.9 -3.3,-2.4 -1.3,-1.55 -1.9,-3.65 -0.6,-2.1 -0.6,-4.55 l 0,-1.9 6.25,0 0,1.85 q 0,3.05 1,4.75 1.05,1.65 3.9,1.65 1.5,0 2.45,-0.45 1,-0.45 1.55,-1.3 0.6,-0.9 0.8,-2.2 0.2,-1.3 0.2,-2.95 l 0,-24.55 6.25,0 0,24.2 z"
         style="font-style:normal;font-variant:normal;font-weight:500;font-stretch:normal;font-size:50px;line-height:125%;font-family:'Helvetica Neue';-inkscape-font-specification:'Helvetica Neue Medium';text-align:start;writing-mode:lr-tb;text-anchor:start"
         id="path8474" />
      <path
         d="m 362.94706,931.42328 q 0,1.05 0.25,1.5 0.3,0.45 1.1,0.45 0.25,0 0.6,0 0.35,0 0.8,-0.1 l 0,3.95 q -0.3,0.1 -0.8,0.2 -0.45,0.15 -0.95,0.25 -0.5,0.1 -1,0.15 -0.5,0.05 -0.85,0.05 -1.75,0 -2.9,-0.7 -1.15,-0.7 -1.5,-2.45 -1.7,1.65 -4.2,2.4 -2.45,0.75 -4.75,0.75 -1.75,0 -3.35,-0.5 -1.6,-0.45 -2.85,-1.35 -1.2,-0.95 -1.95,-2.35 -0.7,-1.45 -0.7,-3.35 0,-2.4 0.85,-3.9 0.9,-1.5 2.3,-2.35 1.45,-0.85 3.2,-1.2 1.8,-0.4 3.6,-0.6 1.55,-0.3 2.95,-0.4 1.4,-0.15 2.45,-0.45 1.1,-0.3 1.7,-0.9 0.65,-0.65 0.65,-1.9 0,-1.1 -0.55,-1.8 -0.5,-0.7 -1.3,-1.05 -0.75,-0.4 -1.7,-0.5 -0.95,-0.15 -1.8,-0.15 -2.4,0 -3.95,1 -1.55,1 -1.75,3.1 l -5.7,0 q 0.15,-2.5 1.2,-4.15 1.05,-1.65 2.65,-2.65 1.65,-1 3.7,-1.4 2.05,-0.4 4.2,-0.4 1.9,0 3.75,0.4 1.85,0.4 3.3,1.3 1.5,0.9 2.4,2.35 0.9,1.4 0.9,3.45 l 0,13.3 z m -5.7,-7.2 q -1.3,0.85 -3.2,1.05 -1.9,0.15 -3.8,0.5 -0.9,0.15 -1.75,0.45 -0.85,0.25 -1.5,0.75 -0.65,0.45 -1.05,1.25 -0.35,0.75 -0.35,1.85 0,0.95 0.55,1.6 0.55,0.65 1.3,1.05 0.8,0.35 1.7,0.5 0.95,0.15 1.7,0.15 0.95,0 2.05,-0.25 1.1,-0.25 2.05,-0.85 1,-0.6 1.65,-1.5 0.65,-0.95 0.65,-2.3 l 0,-4.25 z"
         style="font-style:normal;font-variant:normal;font-weight:500;font-stretch:normal;font-size:50px;line-height:125%;font-family:'Helvetica Neue';-inkscape-font-specification:'Helvetica Neue Medium';text-align:start;writing-mode:lr-tb;text-anchor:start"
         id="path8476" />
      <path
         d="m 369.03143,911.32328 5.35,0 0,5 0.1,0 q 0.25,-1.05 0.95,-2.05 0.75,-1 1.75,-1.8 1.05,-0.85 2.3,-1.35 1.25,-0.5 2.55,-0.5 1,0 1.35,0.05 0.4,0.05 0.8,0.1 l 0,5.5 q -0.6,-0.1 -1.25,-0.15 -0.6,-0.1 -1.2,-0.1 -1.45,0 -2.75,0.6 -1.25,0.55 -2.2,1.7 -0.95,1.1 -1.5,2.75 -0.55,1.65 -0.55,3.8 l 0,12.3 -5.7,0 0,-25.85 z"
         style="font-style:normal;font-variant:normal;font-weight:500;font-stretch:normal;font-size:50px;line-height:125%;font-family:'Helvetica Neue';-inkscape-font-specification:'Helvetica Neue Medium';text-align:start;writing-mode:lr-tb;text-anchor:start"
         id="path8478" />
      <path
         d="m 386.60956,911.32328 5.4,0 0,3.6 0.15,0 q 0.65,-0.95 1.4,-1.75 0.75,-0.8 1.65,-1.35 0.95,-0.55 2.15,-0.85 1.2,-0.35 2.75,-0.35 2.35,0 4.35,1.05 2.05,1.05 2.9,3.25 1.45,-2 3.35,-3.15 1.9,-1.15 4.75,-1.15 4.1,0 6.35,2 2.3,2 2.3,6.7 l 0,17.85 -5.7,0 0,-15.1 q 0,-1.55 -0.1,-2.8 -0.1,-1.3 -0.6,-2.2 -0.45,-0.95 -1.4,-1.45 -0.95,-0.5 -2.6,-0.5 -2.9,0 -4.2,1.8 -1.3,1.8 -1.3,5.1 l 0,15.15 -5.7,0 0,-16.6 q 0,-2.7 -1,-4.05 -0.95,-1.4 -3.55,-1.4 -1.1,0 -2.15,0.45 -1,0.45 -1.8,1.3 -0.75,0.85 -1.25,2.1 -0.45,1.25 -0.45,2.85 l 0,15.35 -5.7,0 0,-25.85 z"
         style="font-style:normal;font-variant:normal;font-weight:500;font-stretch:normal;font-size:50px;line-height:125%;font-family:'Helvetica Neue';-inkscape-font-specification:'Helvetica Neue Medium';text-align:start;writing-mode:lr-tb;text-anchor:start"
         id="path8480" />
      <path
         d="m 430.31425,901.47328 5.7,0 0,5.4 -5.7,0 0,-5.4 z m 0,9.85 5.7,0 0,25.85 -5.7,0 0,-25.85 z"
         style="font-style:normal;font-variant:normal;font-weight:500;font-stretch:normal;font-size:50px;line-height:125%;font-family:'Helvetica Neue';-inkscape-font-specification:'Helvetica Neue Medium';text-align:start;writing-mode:lr-tb;text-anchor:start"
         id="path8482" />
      <path
         d="m 442.32596,901.47328 5.7,0 0,35.7 -5.7,0 0,-35.7 z"
         style="font-style:normal;font-variant:normal;font-weight:500;font-stretch:normal;font-size:50px;line-height:125%;font-family:'Helvetica Neue';-inkscape-font-specification:'Helvetica Neue Medium';text-align:start;writing-mode:lr-tb;text-anchor:start"
         id="path8484" />
      <path
         d="m 454.33768,901.47328 5.7,0 0,20.3 10.3,-10.45 7,0 -9.9,9.5 10.85,16.35 -6.95,0 -7.9,-12.55 -3.4,3.3 0,9.25 -5.7,0 0,-35.7 z"
         style="font-style:normal;font-variant:normal;font-weight:500;font-stretch:normal;font-size:50px;line-height:125%;font-family:'Helvetica Neue';-inkscape-font-specification:'Helvetica Neue Medium';text-align:start;writing-mode:lr-tb;text-anchor:start"
         id="path8486" />
      <path
         d="m 502.69315,931.42328 q 0,1.05 0.25,1.5 0.3,0.45 1.1,0.45 0.25,0 0.6,0 0.35,0 0.8,-0.1 l 0,3.95 q -0.3,0.1 -0.8,0.2 -0.45,0.15 -0.95,0.25 -0.5,0.1 -1,0.15 -0.5,0.05 -0.85,0.05 -1.75,0 -2.9,-0.7 -1.15,-0.7 -1.5,-2.45 -1.7,1.65 -4.2,2.4 -2.45,0.75 -4.75,0.75 -1.75,0 -3.35,-0.5 -1.6,-0.45 -2.85,-1.35 -1.2,-0.95 -1.95,-2.35 -0.7,-1.45 -0.7,-3.35 0,-2.4 0.85,-3.9 0.9,-1.5 2.3,-2.35 1.45,-0.85 3.2,-1.2 1.8,-0.4 3.6,-0.6 1.55,-0.3 2.95,-0.4 1.4,-0.15 2.45,-0.45 1.1,-0.3 1.7,-0.9 0.65,-0.65 0.65,-1.9 0,-1.1 -0.55,-1.8 -0.5,-0.7 -1.3,-1.05 -0.75,-0.4 -1.7,-0.5 -0.95,-0.15 -1.8,-0.15 -2.4,0 -3.95,1 -1.55,1 -1.75,3.1 l -5.7,0 q 0.15,-2.5 1.2,-4.15 1.05,-1.65 2.65,-2.65 1.65,-1 3.7,-1.4 2.05,-0.4 4.2,-0.4 1.9,0 3.75,0.4 1.85,0.4 3.3,1.3 1.5,0.9 2.4,2.35 0.9,1.4 0.9,3.45 l 0,13.3 z m -5.7,-7.2 q -1.3,0.85 -3.2,1.05 -1.9,0.15 -3.8,0.5 -0.9,0.15 -1.75,0.45 -0.85,0.25 -1.5,0.75 -0.65,0.45 -1.05,1.25 -0.35,0.75 -0.35,1.85 0,0.95 0.55,1.6 0.55,0.65 1.3,1.05 0.8,0.35 1.7,0.5 0.95,0.15 1.7,0.15 0.95,0 2.05,-0.25 1.1,-0.25 2.05,-0.85 1,-0.6 1.65,-1.5 0.65,-0.95 0.65,-2.3 l 0,-4.25 z"
         style="font-style:normal;font-variant:normal;font-weight:500;font-stretch:normal;font-size:50px;line-height:125%;font-family:'Helvetica Neue';-inkscape-font-specification:'Helvetica Neue Medium';text-align:start;writing-mode:lr-tb;text-anchor:start"
         id="path8488" />
      <path
         d="m 533.54471,901.47328 q 3.75,0 6.1,1.75 2.4,1.7 3.7,4.4 1.35,2.65 1.8,5.85 0.5,3.2 0.5,6.2 0,3 -0.5,6.2 -0.45,3.2 -1.8,5.9 -1.3,2.65 -3.7,4.4 -2.35,1.7 -6.1,1.7 -3.75,0 -6.15,-1.7 -2.35,-1.75 -3.7,-4.4 -1.3,-2.7 -1.8,-5.9 -0.45,-3.2 -0.45,-6.2 0,-3 0.45,-6.2 0.5,-3.2 1.8,-5.85 1.35,-2.7 3.7,-4.4 2.4,-1.75 6.15,-1.75 z m 0,31.65 q 1.85,0 3.1,-1.05 1.25,-1.1 1.95,-2.9 0.75,-1.85 1.05,-4.3 0.3,-2.45 0.3,-5.2 0,-2.75 -0.3,-5.15 -0.3,-2.45 -1.05,-4.3 -0.7,-1.85 -1.95,-2.9 -1.25,-1.1 -3.1,-1.1 -1.9,0 -3.15,1.1 -1.2,1.05 -1.95,2.9 -0.7,1.85 -1,4.3 -0.3,2.4 -0.3,5.15 0,2.75 0.3,5.2 0.3,2.45 1,4.3 0.75,1.8 1.95,2.9 1.25,1.05 3.15,1.05 z"
         style="font-style:normal;font-variant:normal;font-weight:500;font-stretch:normal;font-size:50px;line-height:125%;font-family:'Helvetica Neue';-inkscape-font-specification:'Helvetica Neue Medium';text-align:start;writing-mode:lr-tb;text-anchor:start"
         id="path8490" />
      <path
         d="m 561.37675,901.47328 q 3.75,0 6.1,1.75 2.4,1.7 3.7,4.4 1.35,2.65 1.8,5.85 0.5,3.2 0.5,6.2 0,3 -0.5,6.2 -0.45,3.2 -1.8,5.9 -1.3,2.65 -3.7,4.4 -2.35,1.7 -6.1,1.7 -3.75,0 -6.15,-1.7 -2.35,-1.75 -3.7,-4.4 -1.3,-2.7 -1.8,-5.9 -0.45,-3.2 -0.45,-6.2 0,-3 0.45,-6.2 0.5,-3.2 1.8,-5.85 1.35,-2.7 3.7,-4.4 2.4,-1.75 6.15,-1.75 z m 0,31.65 q 1.85,0 3.1,-1.05 1.25,-1.1 1.95,-2.9 0.75,-1.85 1.05,-4.3 0.3,-2.45 0.3,-5.2 0,-2.75 -0.3,-5.15 -0.3,-2.45 -1.05,-4.3 -0.7,-1.85 -1.95,-2.9 -1.25,-1.1 -3.1,-1.1 -1.9,0 -3.15,1.1 -1.2,1.05 -1.95,2.9 -0.7,1.85 -1,4.3 -0.3,2.4 -0.3,5.15 0,2.75 0.3,5.2 0.3,2.45 1,4.3 0.75,1.8 1.95,2.9 1.25,1.05 3.15,1.05 z"
         style="font-style:normal;font-variant:normal;font-weight:500;font-stretch:normal;font-size:50px;line-height:125%;font-family:'Helvetica Neue';-inkscape-font-specification:'Helvetica Neue Medium';text-align:start;writing-mode:lr-tb;text-anchor:start"
         id="path8492" />
      <path
         d="m 577.95878,907.97328 q 1.8,0 3.5,-0.3 1.7,-0.3 3.05,-1 1.4,-0.7 2.35,-1.8 1,-1.1 1.3,-2.7 l 4.65,0 0,35 -6.25,0 0,-24.7 -8.6,0 0,-4.5 z"
         style="font-style:normal;font-variant:normal;font-weight:500;font-stretch:normal;font-size:50px;line-height:125%;font-family:'Helvetica Neue';-inkscape-font-specification:'Helvetica Neue Medium';text-align:start;writing-mode:lr-tb;text-anchor:start"
         id="path8494" />
    </g>
    <g
       style="font-style:normal;font-variant:normal;font-weight:bold;font-stretch:normal;font-size:22.5px;line-height:125%;font-family:'Helvetica Neue';-inkscape-font-specification:'Helvetica Neue Bold';letter-spacing:0px;word-spacing:0px;fill:#000000;fill-opacity:1;stroke:none;stroke-width:1px;stroke-linecap:butt;stroke-linejoin:miter;stroke-opacity:1"
       id="text8126">
      <path
         d="m 120.56237,954.76143 0,9.4575 2.55125,0 0,-9.4575 3.4775,0 0,-2.145 -9.50625,0 0,2.145 3.4775,0 z"
         style="font-style:normal;font-variant:normal;font-weight:bold;font-stretch:normal;font-size:16.25px;line-height:125%;font-family:'Helvetica Neue';-inkscape-font-specification:'Helvetica Neue Bold';text-align:start;writing-mode:lr-tb;text-anchor:start"
         id="path8457" />
      <path
         d="m 127.78194,952.61643 0,11.6025 2.3075,0 0,-11.6025 -2.3075,0 z"
         style="font-style:normal;font-variant:normal;font-weight:bold;font-stretch:normal;font-size:16.25px;line-height:125%;font-family:'Helvetica Neue';-inkscape-font-specification:'Helvetica Neue Bold';text-align:start;writing-mode:lr-tb;text-anchor:start"
         id="path8459" />
      <path
         d="m 131.80889,958.40143 q 0.0488,-0.8125 0.40625,-1.34875 0.3575,-0.53625 0.91,-0.86125 0.5525,-0.325 1.235,-0.455 0.69875,-0.14625 1.3975,-0.14625 0.63375,0 1.28375,0.0975 0.65,0.0812 1.18625,0.34125 0.53625,0.26 0.8775,0.73125 0.34125,0.455 0.34125,1.21875 l 0,4.37125 q 0,0.56875 0.065,1.08875 0.065,0.52 0.2275,0.78 l -2.34,0 q -0.065,-0.195 -0.11375,-0.39 -0.0325,-0.21125 -0.0488,-0.4225 -0.5525,0.56875 -1.3,0.79625 -0.7475,0.2275 -1.5275,0.2275 -0.60125,0 -1.12125,-0.14625 -0.52,-0.14625 -0.91,-0.455 -0.39,-0.30875 -0.6175,-0.78 -0.21125,-0.47125 -0.21125,-1.12125 0,-0.715 0.24375,-1.17 0.26,-0.47125 0.65,-0.7475 0.40625,-0.27625 0.91,-0.40625 0.52,-0.14625 1.04,-0.2275 0.52,-0.0813 1.02375,-0.13 0.50375,-0.0488 0.89375,-0.14625 0.39,-0.0975 0.6175,-0.27625 0.2275,-0.195 0.21125,-0.5525 0,-0.37375 -0.13,-0.585 -0.11375,-0.2275 -0.325,-0.34125 -0.195,-0.13 -0.47125,-0.1625 -0.26,-0.0488 -0.56875,-0.0488 -0.6825,0 -1.0725,0.2925 -0.39,0.2925 -0.455,0.975 l -2.3075,0 z m 5.33,1.70625 q -0.14625,0.13 -0.37375,0.21125 -0.21125,0.065 -0.47125,0.11375 -0.24375,0.0488 -0.52,0.0812 -0.27625,0.0325 -0.5525,0.0813 -0.26,0.0487 -0.52,0.13 -0.24375,0.0812 -0.43875,0.2275 -0.17875,0.13 -0.2925,0.34125 -0.11375,0.21125 -0.11375,0.53625 0,0.30875 0.11375,0.52 0.11375,0.21125 0.30875,0.34125 0.195,0.11375 0.455,0.1625 0.26,0.0488 0.53625,0.0488 0.6825,0 1.05625,-0.2275 0.37375,-0.2275 0.5525,-0.53625 0.17875,-0.325 0.21125,-0.65 0.0488,-0.325 0.0488,-0.52 l 0,-0.86125 z"
         style="font-style:normal;font-variant:normal;font-weight:bold;font-stretch:normal;font-size:16.25px;line-height:125%;font-family:'Helvetica Neue';-inkscape-font-specification:'Helvetica Neue Bold';text-align:start;writing-mode:lr-tb;text-anchor:start"
         id="path8461" />
      <path
         d="m 146.92571,958.77518 q -0.2275,-1.44625 -1.70625,-1.44625 -0.5525,0 -0.92625,0.26 -0.37375,0.24375 -0.6175,0.65 -0.2275,0.39 -0.325,0.8775 -0.0975,0.4875 -0.0975,0.9425 0,0.455 0.0975,0.92625 0.0975,0.47125 0.30875,0.86125 0.2275,0.37375 0.60125,0.6175 0.37375,0.24375 0.91,0.24375 0.82875,0 1.2675,-0.455 0.455,-0.47125 0.56875,-1.25125 l 2.22625,0 q -0.2275,1.67375 -1.3,2.5675 -1.0725,0.8775 -2.74625,0.8775 -0.95875,0 -1.73875,-0.30875 -0.78,-0.325 -1.3325,-0.89375 -0.5525,-0.585 -0.86125,-1.365 -0.30875,-0.79625 -0.30875,-1.73875 0,-0.975 0.27625,-1.80375 0.2925,-0.845 0.845,-1.44625 0.5525,-0.6175 1.34875,-0.95875 0.79625,-0.34125 1.82,-0.34125 0.7475,0 1.43,0.195 0.69875,0.195 1.235,0.60125 0.5525,0.39 0.89375,0.99125 0.34125,0.60125 0.39,1.3975 l -2.25875,0 z m -0.585,-4.1275 -2.1125,0 -1.7875,-2.3075 1.86875,0 1.0075,1.31625 1.04,-1.31625 1.7875,0 -1.80375,2.3075 z"
         style="font-style:normal;font-variant:normal;font-weight:bold;font-stretch:normal;font-size:16.25px;line-height:125%;font-family:'Helvetica Neue';-inkscape-font-specification:'Helvetica Neue Bold';text-align:start;writing-mode:lr-tb;text-anchor:start"
         id="path8463" />
      <path
         d="m 150.57003,955.81768 0,8.40125 2.3075,0 0,-8.40125 -2.3075,0 z m 4.17625,-4.355 -2.64875,2.87625 -1.60875,0 1.7225,-2.87625 2.535,0 z"
         style="font-style:normal;font-variant:normal;font-weight:bold;font-stretch:normal;font-size:16.25px;line-height:125%;font-family:'Helvetica Neue';-inkscape-font-specification:'Helvetica Neue Bold';text-align:start;writing-mode:lr-tb;text-anchor:start"
         id="path8465" />
      <path
         d="m 157.61948,955.81768 0,-2.51875 -2.3075,0 0,2.51875 -1.3975,0 0,1.54375 1.3975,0 0,4.95625 q 0,0.63375 0.21125,1.02375 0.21125,0.39 0.56875,0.60125 0.37375,0.21125 0.845,0.27625 0.4875,0.0812 1.02375,0.0812 0.34125,0 0.69875,-0.0162 0.3575,-0.0163 0.65,-0.065 l 0,-1.7875 q -0.1625,0.0325 -0.34125,0.0488 -0.17875,0.0163 -0.37375,0.0163 -0.585,0 -0.78,-0.195 -0.195,-0.195 -0.195,-0.78 l 0,-4.16 1.69,0 0,-1.54375 -1.69,0 z"
         style="font-style:normal;font-variant:normal;font-weight:bold;font-stretch:normal;font-size:16.25px;line-height:125%;font-family:'Helvetica Neue';-inkscape-font-specification:'Helvetica Neue Bold';text-align:start;writing-mode:lr-tb;text-anchor:start"
         id="path8467" />
      <path
         d="m 160.61862,952.61643 0,11.6025 2.3075,0 0,-2.8925 0.89375,-0.86125 2.3075,3.75375 2.795,0 -3.52625,-5.31375 3.16875,-3.0875 -2.73,0 -2.90875,3.0225 0,-6.22375 -2.3075,0 z"
         style="font-style:normal;font-variant:normal;font-weight:bold;font-stretch:normal;font-size:16.25px;line-height:125%;font-family:'Helvetica Neue';-inkscape-font-specification:'Helvetica Neue Bold';text-align:start;writing-mode:lr-tb;text-anchor:start"
         id="path8469" />
      <path
         d="m 171.78592,960.02643 q 0,-0.50375 0.0975,-0.99125 0.0975,-0.4875 0.325,-0.86125 0.24375,-0.37375 0.63375,-0.60125 0.39,-0.24375 0.975,-0.24375 0.585,0 0.975,0.24375 0.40625,0.2275 0.63375,0.60125 0.24375,0.37375 0.34125,0.86125 0.0975,0.4875 0.0975,0.99125 0,0.50375 -0.0975,0.99125 -0.0975,0.47125 -0.34125,0.86125 -0.2275,0.37375 -0.63375,0.60125 -0.39,0.2275 -0.975,0.2275 -0.585,0 -0.975,-0.2275 -0.39,-0.2275 -0.63375,-0.60125 -0.2275,-0.39 -0.325,-0.86125 -0.0975,-0.4875 -0.0975,-0.99125 z m -2.3075,0 q 0,1.0075 0.30875,1.82 0.30875,0.8125 0.8775,1.3975 0.56875,0.56875 1.365,0.8775 0.79625,0.30875 1.7875,0.30875 0.99125,0 1.7875,-0.30875 0.8125,-0.30875 1.38125,-0.8775 0.56875,-0.585 0.8775,-1.3975 0.30875,-0.8125 0.30875,-1.82 0,-1.0075 -0.30875,-1.82 -0.30875,-0.82875 -0.8775,-1.3975 -0.56875,-0.585 -1.38125,-0.89375 -0.79625,-0.325 -1.7875,-0.325 -0.99125,0 -1.7875,0.325 -0.79625,0.30875 -1.365,0.89375 -0.56875,0.56875 -0.8775,1.3975 -0.30875,0.8125 -0.30875,1.82 z"
         style="font-style:normal;font-variant:normal;font-weight:bold;font-stretch:normal;font-size:16.25px;line-height:125%;font-family:'Helvetica Neue';-inkscape-font-specification:'Helvetica Neue Bold';text-align:start;writing-mode:lr-tb;text-anchor:start"
         id="path8471" />
    </g>
    <rect
       style="opacity:1;fill:none;fill-opacity:1;stroke:#000000;stroke-width:0.99537295;stroke-miterlimit:4;stroke-dasharray:none;stroke-dashoffset:0;stroke-opacity:1"
       id="rect8108"
       width="346.24872"
       height="154.91014"
       x="93.343742"
       y="657.22144" />
    <rect
       style="opacity:1;fill:none;fill-opacity:1;stroke:#000000;stroke-width:1;stroke-miterlimit:4;stroke-dasharray:none;stroke-dashoffset:0;stroke-opacity:1"
       id="rect8114"
       width="52.156696"
       height="35.255566"
       x="266.96811"
       y="737.89734" />
    <rect
       y="737.89734"
       x="135.86574"
       height="35.255566"
       width="52.156696"
       id="rect8116"
       style="opacity:1;fill:none;fill-opacity:1;stroke:#000000;stroke-width:1;stroke-miterlimit:4;stroke-dasharray:none;stroke-dashoffset:0;stroke-opacity:1" />
    <g
       style="font-style:normal;font-weight:normal;font-size:35px;line-height:125%;font-family:sans-serif;letter-spacing:0px;word-spacing:0px;fill:#000000;fill-opacity:1;stroke:none;stroke-width:1px;stroke-linecap:butt;stroke-linejoin:miter;stroke-opacity:1"
       id="text8130">
      <path
         d="m 150.49574,711.4212 0,-24.5 -3.955,0 q -0.21,1.4 -0.875,2.345 -0.665,0.945 -1.645,1.54 -0.945,0.56 -2.17,0.805 -1.19,0.21 -2.485,0.175 l 0,3.745 6.16,0 0,15.89 4.97,0 z"
         style="font-style:normal;font-variant:normal;font-weight:bold;font-stretch:normal;font-size:35px;line-height:125%;font-family:'Helvetica Neue';-inkscape-font-specification:'Helvetica Neue Bold';text-align:start;writing-mode:lr-tb;text-anchor:start"
         id="path8400" />
    </g>
    <g
       style="font-style:normal;font-weight:normal;font-size:35px;line-height:125%;font-family:sans-serif;letter-spacing:0px;word-spacing:0px;fill:#000000;fill-opacity:1;stroke:none;stroke-width:1px;stroke-linecap:butt;stroke-linejoin:miter;stroke-opacity:1"
       id="text8134">
      <path
         d="m 271.02809,696.65346 4.76,0 q 0,-0.98 0.175,-1.96 0.21,-1.015 0.665,-1.82 0.455,-0.84 1.19,-1.33 0.77,-0.525 1.855,-0.525 1.61,0 2.625,1.015 1.05,0.98 1.05,2.765 0,1.12 -0.525,1.995 -0.49,0.875 -1.26,1.575 -0.735,0.7 -1.645,1.295 -0.91,0.56 -1.715,1.12 -1.575,1.085 -3.01,2.135 -1.4,1.05 -2.45,2.31 -1.05,1.225 -1.68,2.8 -0.595,1.575 -0.595,3.71 l 17.99,0 0,-4.27 -11.585,0 q 0.91,-1.26 2.1,-2.205 1.19,-0.945 2.45,-1.75 1.26,-0.84 2.485,-1.68 1.26,-0.84 2.24,-1.855 0.98,-1.05 1.575,-2.38 0.595,-1.33 0.595,-3.185 0,-1.785 -0.7,-3.22 -0.665,-1.435 -1.82,-2.415 -1.155,-0.98 -2.695,-1.505 -1.505,-0.525 -3.185,-0.525 -2.205,0 -3.92,0.77 -1.68,0.735 -2.8,2.1 -1.12,1.33 -1.68,3.15 -0.56,1.785 -0.49,3.885 z"
         style="font-style:normal;font-variant:normal;font-weight:bold;font-stretch:normal;font-size:35px;line-height:125%;font-family:'Helvetica Neue';-inkscape-font-specification:'Helvetica Neue Bold';text-align:start;writing-mode:lr-tb;text-anchor:start"
         id="path8397" />
    </g>
    <rect
       style="opacity:1;fill:none;fill-opacity:1;stroke:#000000;stroke-width:1;stroke-miterlimit:4;stroke-dasharray:none;stroke-dashoffset:0;stroke-opacity:1"
       id="rect8167"
       width="52.758686"
       height="151.97128"
       x="465.56293"
       y="660.15796" />
    <g
       transform="matrix(0,-1,1,0,0,0)"
       style="font-style:normal;font-variant:normal;font-weight:bold;font-stretch:normal;font-size:22.5px;line-height:100%;font-family:'Helvetica Neue';-inkscape-font-specification:'Helvetica Neue Bold';letter-spacing:0px;word-spacing:0px;fill:#000000;fill-opacity:1;stroke:none;stroke-width:1px;stroke-linecap:butt;stroke-linejoin:miter;stroke-opacity:1"
       id="text8197">
      <path
         d="m -753.11239,477.91038 0,11.6025 2.55125,0 0,-3.7375 1.4625,-1.47875 3.49375,5.21625 3.20125,0 -4.9725,-7.02 4.53375,-4.5825 -3.185,0 -4.53375,4.81 0,-4.81 -2.55125,0 z"
         style="font-style:normal;font-variant:normal;font-weight:bold;font-stretch:normal;font-size:16.25px;line-height:100%;font-family:'Helvetica Neue';-inkscape-font-specification:'Helvetica Neue, Bold';text-align:start;writing-mode:lr-tb;text-anchor:start"
         id="path8428" />
      <path
         d="m -741.74222,483.69538 q 0.0487,-0.8125 0.40625,-1.34875 0.3575,-0.53625 0.91,-0.86125 0.5525,-0.325 1.235,-0.455 0.69875,-0.14625 1.3975,-0.14625 0.63375,0 1.28375,0.0975 0.65,0.0813 1.18625,0.34125 0.53625,0.26 0.8775,0.73125 0.34125,0.455 0.34125,1.21875 l 0,4.37125 q 0,0.56875 0.065,1.08875 0.065,0.52 0.2275,0.78 l -2.34,0 q -0.065,-0.195 -0.11375,-0.39 -0.0325,-0.21125 -0.0487,-0.4225 -0.5525,0.56875 -1.3,0.79625 -0.7475,0.2275 -1.5275,0.2275 -0.60125,0 -1.12125,-0.14625 -0.52,-0.14625 -0.91,-0.455 -0.39,-0.30875 -0.6175,-0.78 -0.21125,-0.47125 -0.21125,-1.12125 0,-0.715 0.24375,-1.17 0.26,-0.47125 0.65,-0.7475 0.40625,-0.27625 0.91,-0.40625 0.52,-0.14625 1.04,-0.2275 0.52,-0.0813 1.02375,-0.13 0.50375,-0.0488 0.89375,-0.14625 0.39,-0.0975 0.6175,-0.27625 0.2275,-0.195 0.21125,-0.5525 0,-0.37375 -0.13,-0.585 -0.11375,-0.2275 -0.325,-0.34125 -0.195,-0.13 -0.47125,-0.1625 -0.26,-0.0487 -0.56875,-0.0487 -0.6825,0 -1.0725,0.2925 -0.39,0.2925 -0.455,0.975 l -2.3075,0 z m 5.33,1.70625 q -0.14625,0.13 -0.37375,0.21125 -0.21125,0.065 -0.47125,0.11375 -0.24375,0.0487 -0.52,0.0813 -0.27625,0.0325 -0.5525,0.0813 -0.26,0.0487 -0.52,0.13 -0.24375,0.0812 -0.43875,0.2275 -0.17875,0.13 -0.2925,0.34125 -0.11375,0.21125 -0.11375,0.53625 0,0.30875 0.11375,0.52 0.11375,0.21125 0.30875,0.34125 0.195,0.11375 0.455,0.1625 0.26,0.0488 0.53625,0.0488 0.6825,0 1.05625,-0.2275 0.37375,-0.2275 0.5525,-0.53625 0.17875,-0.325 0.21125,-0.65 0.0487,-0.325 0.0487,-0.52 l 0,-0.86125 z"
         style="font-style:normal;font-variant:normal;font-weight:bold;font-stretch:normal;font-size:16.25px;line-height:100%;font-family:'Helvetica Neue';-inkscape-font-specification:'Helvetica Neue, Bold';text-align:start;writing-mode:lr-tb;text-anchor:start"
         id="path8430" />
      <path
         d="m -732.3454,481.11163 0,8.40125 2.3075,0 0,-3.78625 q 0,-0.56875 0.11375,-1.05625 0.11375,-0.4875 0.37375,-0.845 0.27625,-0.37375 0.715,-0.585 0.43875,-0.21125 1.0725,-0.21125 0.21125,0 0.43875,0.0325 0.2275,0.0163 0.39,0.0488 l 0,-2.145 q -0.27625,-0.0812 -0.50375,-0.0812 -0.43875,0 -0.845,0.13 -0.40625,0.13 -0.76375,0.37375 -0.3575,0.2275 -0.63375,0.56875 -0.27625,0.325 -0.43875,0.715 l -0.0325,0 0,-1.56 -2.19375,0 z"
         style="font-style:normal;font-variant:normal;font-weight:bold;font-stretch:normal;font-size:16.25px;line-height:100%;font-family:'Helvetica Neue';-inkscape-font-specification:'Helvetica Neue, Bold';text-align:start;writing-mode:lr-tb;text-anchor:start"
         id="path8432" />
      <path
         d="m -723.07274,481.11163 0,-2.51875 -2.3075,0 0,2.51875 -1.3975,0 0,1.54375 1.3975,0 0,4.95625 q 0,0.63375 0.21125,1.02375 0.21125,0.39 0.56875,0.60125 0.37375,0.21125 0.845,0.27625 0.4875,0.0813 1.02375,0.0813 0.34125,0 0.69875,-0.0163 0.3575,-0.0163 0.65,-0.065 l 0,-1.7875 q -0.1625,0.0325 -0.34125,0.0488 -0.17875,0.0163 -0.37375,0.0163 -0.585,0 -0.78,-0.195 -0.195,-0.195 -0.195,-0.78 l 0,-4.16 1.69,0 0,-1.54375 -1.69,0 z"
         style="font-style:normal;font-variant:normal;font-weight:bold;font-stretch:normal;font-size:16.25px;line-height:100%;font-family:'Helvetica Neue';-inkscape-font-specification:'Helvetica Neue, Bold';text-align:start;writing-mode:lr-tb;text-anchor:start"
         id="path8434" />
      <path
         d="m -720.38235,483.69538 q 0.0487,-0.8125 0.40625,-1.34875 0.3575,-0.53625 0.91,-0.86125 0.5525,-0.325 1.235,-0.455 0.69875,-0.14625 1.3975,-0.14625 0.63375,0 1.28375,0.0975 0.65,0.0813 1.18625,0.34125 0.53625,0.26 0.8775,0.73125 0.34125,0.455 0.34125,1.21875 l 0,4.37125 q 0,0.56875 0.065,1.08875 0.065,0.52 0.2275,0.78 l -2.34,0 q -0.065,-0.195 -0.11375,-0.39 -0.0325,-0.21125 -0.0487,-0.4225 -0.5525,0.56875 -1.3,0.79625 -0.7475,0.2275 -1.5275,0.2275 -0.60125,0 -1.12125,-0.14625 -0.52,-0.14625 -0.91,-0.455 -0.39,-0.30875 -0.6175,-0.78 -0.21125,-0.47125 -0.21125,-1.12125 0,-0.715 0.24375,-1.17 0.26,-0.47125 0.65,-0.7475 0.40625,-0.27625 0.91,-0.40625 0.52,-0.14625 1.04,-0.2275 0.52,-0.0813 1.02375,-0.13 0.50375,-0.0488 0.89375,-0.14625 0.39,-0.0975 0.6175,-0.27625 0.2275,-0.195 0.21125,-0.5525 0,-0.37375 -0.13,-0.585 -0.11375,-0.2275 -0.325,-0.34125 -0.195,-0.13 -0.47125,-0.1625 -0.26,-0.0487 -0.56875,-0.0487 -0.6825,0 -1.0725,0.2925 -0.39,0.2925 -0.455,0.975 l -2.3075,0 z m 5.33,1.70625 q -0.14625,0.13 -0.37375,0.21125 -0.21125,0.065 -0.47125,0.11375 -0.24375,0.0487 -0.52,0.0813 -0.27625,0.0325 -0.5525,0.0813 -0.26,0.0487 -0.52,0.13 -0.24375,0.0812 -0.43875,0.2275 -0.17875,0.13 -0.2925,0.34125 -0.11375,0.21125 -0.11375,0.53625 0,0.30875 0.11375,0.52 0.11375,0.21125 0.30875,0.34125 0.195,0.11375 0.455,0.1625 0.26,0.0488 0.53625,0.0488 0.6825,0 1.05625,-0.2275 0.37375,-0.2275 0.5525,-0.53625 0.17875,-0.325 0.21125,-0.65 0.0487,-0.325 0.0487,-0.52 l 0,-0.86125 z"
         style="font-style:normal;font-variant:normal;font-weight:bold;font-stretch:normal;font-size:16.25px;line-height:100%;font-family:'Helvetica Neue';-inkscape-font-specification:'Helvetica Neue, Bold';text-align:start;writing-mode:lr-tb;text-anchor:start"
         id="path8436" />
      <path
         d="m -753.87614,504.02413 0,1.73875 7.71875,0 0,-1.73875 -4.68,0 4.37125,-4.92375 0,-1.73875 -7.085,0 0,1.73875 4.04625,0 -4.37125,4.92375 z"
         style="font-style:normal;font-variant:normal;font-weight:bold;font-stretch:normal;font-size:16.25px;line-height:100%;font-family:'Helvetica Neue';-inkscape-font-specification:'Helvetica Neue, Bold';text-align:start;writing-mode:lr-tb;text-anchor:start"
         id="path8438" />
      <path
         d="m -737.51366,497.36163 0,-2.51875 -2.3075,0 0,2.51875 -1.3975,0 0,1.54375 1.3975,0 0,4.95625 q 0,0.63375 0.21125,1.02375 0.21125,0.39 0.56875,0.60125 0.37375,0.21125 0.845,0.27625 0.4875,0.0813 1.02375,0.0813 0.34125,0 0.69875,-0.0163 0.3575,-0.0163 0.65,-0.065 l 0,-1.7875 q -0.1625,0.0325 -0.34125,0.0488 -0.17875,0.0163 -0.37375,0.0163 -0.585,0 -0.78,-0.195 -0.195,-0.195 -0.195,-0.78 l 0,-4.16 1.69,0 0,-1.54375 -1.69,0 z"
         style="font-style:normal;font-variant:normal;font-weight:bold;font-stretch:normal;font-size:16.25px;line-height:100%;font-family:'Helvetica Neue';-inkscape-font-specification:'Helvetica Neue, Bold';text-align:start;writing-mode:lr-tb;text-anchor:start"
         id="path8440" />
      <path
         d="m -729.07077,500.66038 -3.75375,0 q 0.0163,-0.24375 0.0975,-0.5525 0.0975,-0.30875 0.30875,-0.585 0.2275,-0.27625 0.585,-0.455 0.37375,-0.195 0.92625,-0.195 0.845,0 1.25125,0.455 0.4225,0.455 0.585,1.3325 z m -3.75375,1.4625 6.06125,0 q 0.065,-0.975 -0.1625,-1.86875 -0.2275,-0.89375 -0.7475,-1.5925 -0.50375,-0.69875 -1.3,-1.105 -0.79625,-0.4225 -1.86875,-0.4225 -0.95875,0 -1.755,0.34125 -0.78,0.34125 -1.34875,0.9425 -0.56875,0.585 -0.8775,1.3975 -0.30875,0.8125 -0.30875,1.755 0,0.975 0.2925,1.7875 0.30875,0.8125 0.86125,1.3975 0.5525,0.585 1.34875,0.91 0.79625,0.30875 1.7875,0.30875 1.43,0 2.4375,-0.65 1.0075,-0.65 1.495,-2.16125 l -2.03125,0 q -0.11375,0.39 -0.6175,0.7475 -0.50375,0.34125 -1.2025,0.34125 -0.975,0 -1.495,-0.50375 -0.52,-0.50375 -0.56875,-1.625 z"
         style="font-style:normal;font-variant:normal;font-weight:bold;font-stretch:normal;font-size:16.25px;line-height:100%;font-family:'Helvetica Neue';-inkscape-font-specification:'Helvetica Neue, Bold';text-align:start;writing-mode:lr-tb;text-anchor:start"
         id="path8442" />
      <path
         d="m -725.32972,494.16038 0,11.6025 2.3075,0 0,-11.6025 -2.3075,0 z"
         style="font-style:normal;font-variant:normal;font-weight:bold;font-stretch:normal;font-size:16.25px;line-height:100%;font-family:'Helvetica Neue';-inkscape-font-specification:'Helvetica Neue, Bold';text-align:start;writing-mode:lr-tb;text-anchor:start"
         id="path8444" />
      <path
         d="m -715.55026,500.66038 -3.75375,0 q 0.0162,-0.24375 0.0975,-0.5525 0.0975,-0.30875 0.30875,-0.585 0.2275,-0.27625 0.585,-0.455 0.37375,-0.195 0.92625,-0.195 0.845,0 1.25125,0.455 0.4225,0.455 0.585,1.3325 z m -3.75375,1.4625 6.06125,0 q 0.065,-0.975 -0.1625,-1.86875 -0.2275,-0.89375 -0.7475,-1.5925 -0.50375,-0.69875 -1.3,-1.105 -0.79625,-0.4225 -1.86875,-0.4225 -0.95875,0 -1.755,0.34125 -0.78,0.34125 -1.34875,0.9425 -0.56875,0.585 -0.8775,1.3975 -0.30875,0.8125 -0.30875,1.755 0,0.975 0.2925,1.7875 0.30875,0.8125 0.86125,1.3975 0.5525,0.585 1.34875,0.91 0.79625,0.30875 1.7875,0.30875 1.43,0 2.4375,-0.65 1.0075,-0.65 1.495,-2.16125 l -2.03125,0 q -0.11375,0.39 -0.6175,0.7475 -0.50375,0.34125 -1.2025,0.34125 -0.975,0 -1.495,-0.50375 -0.52,-0.50375 -0.56875,-1.625 z"
         style="font-style:normal;font-variant:normal;font-weight:bold;font-stretch:normal;font-size:16.25px;line-height:100%;font-family:'Helvetica Neue';-inkscape-font-specification:'Helvetica Neue, Bold';text-align:start;writing-mode:lr-tb;text-anchor:start"
         id="path8446" />
      <path
         d="m -711.37046,498.90538 0,6.8575 2.3075,0 0,-6.8575 1.5925,0 0,-1.54375 -1.5925,0 0,-0.50375 q 0,-0.52 0.195,-0.73125 0.21125,-0.2275 0.6825,-0.2275 0.43875,0 0.845,0.0487 l 0,-1.7225 q -0.2925,-0.0162 -0.60125,-0.0325 -0.30875,-0.0325 -0.6175,-0.0325 -1.41375,0 -2.1125,0.715 -0.69875,0.715 -0.69875,1.83625 l 0,0.65 -1.38125,0 0,1.54375 1.38125,0 z"
         style="font-style:normal;font-variant:normal;font-weight:bold;font-stretch:normal;font-size:16.25px;line-height:100%;font-family:'Helvetica Neue';-inkscape-font-specification:'Helvetica Neue, Bold';text-align:start;writing-mode:lr-tb;text-anchor:start"
         id="path8448" />
      <path
         d="m -704.39946,501.57038 q 0,-0.50375 0.0975,-0.99125 0.0975,-0.4875 0.325,-0.86125 0.24375,-0.37375 0.63375,-0.60125 0.39,-0.24375 0.975,-0.24375 0.585,0 0.975,0.24375 0.40625,0.2275 0.63375,0.60125 0.24375,0.37375 0.34125,0.86125 0.0975,0.4875 0.0975,0.99125 0,0.50375 -0.0975,0.99125 -0.0975,0.47125 -0.34125,0.86125 -0.2275,0.37375 -0.63375,0.60125 -0.39,0.2275 -0.975,0.2275 -0.585,0 -0.975,-0.2275 -0.39,-0.2275 -0.63375,-0.60125 -0.2275,-0.39 -0.325,-0.86125 -0.0975,-0.4875 -0.0975,-0.99125 z m -2.3075,0 q 0,1.0075 0.30875,1.82 0.30875,0.8125 0.8775,1.3975 0.56875,0.56875 1.365,0.8775 0.79625,0.30875 1.7875,0.30875 0.99125,0 1.7875,-0.30875 0.8125,-0.30875 1.38125,-0.8775 0.56875,-0.585 0.8775,-1.3975 0.30875,-0.8125 0.30875,-1.82 0,-1.0075 -0.30875,-1.82 -0.30875,-0.82875 -0.8775,-1.3975 -0.56875,-0.585 -1.38125,-0.89375 -0.79625,-0.325 -1.7875,-0.325 -0.99125,0 -1.7875,0.325 -0.79625,0.30875 -1.365,0.89375 -0.56875,0.56875 -0.8775,1.3975 -0.30875,0.8125 -0.30875,1.82 z"
         style="font-style:normal;font-variant:normal;font-weight:bold;font-stretch:normal;font-size:16.25px;line-height:100%;font-family:'Helvetica Neue';-inkscape-font-specification:'Helvetica Neue, Bold';text-align:start;writing-mode:lr-tb;text-anchor:start"
         id="path8450" />
      <path
         d="m -696.54462,497.36163 0,8.40125 2.3075,0 0,-4.40375 q 0,-1.28375 0.4225,-1.83625 0.4225,-0.56875 1.365,-0.56875 0.82875,0 1.15375,0.52 0.325,0.50375 0.325,1.54375 l 0,4.745 2.3075,0 0,-5.1675 q 0,-0.78 -0.14625,-1.41375 -0.13,-0.65 -0.47125,-1.08875 -0.34125,-0.455 -0.9425,-0.69875 -0.585,-0.26 -1.51125,-0.26 -0.73125,0 -1.43,0.34125 -0.69875,0.325 -1.1375,1.05625 l -0.0488,0 0,-1.17 -2.19375,0 z"
         style="font-style:normal;font-variant:normal;font-weight:bold;font-stretch:normal;font-size:16.25px;line-height:100%;font-family:'Helvetica Neue';-inkscape-font-specification:'Helvetica Neue, Bold';text-align:start;writing-mode:lr-tb;text-anchor:start"
         id="path8452" />
      <path
         d="m -679.01493,505.76288 0,-8.40125 -2.3075,0 0,4.40375 q 0,1.28375 -0.4225,1.8525 -0.4225,0.5525 -1.365,0.5525 -0.82875,0 -1.15375,-0.50375 -0.325,-0.52 -0.325,-1.56 l 0,-4.745 -2.3075,0 0,5.1675 q 0,0.78 0.13,1.43 0.14625,0.63375 0.4875,1.08875 0.34125,0.43875 0.92625,0.6825 0.60125,0.24375 1.5275,0.24375 0.73125,0 1.43,-0.325 0.69875,-0.325 1.1375,-1.05625 l 0.0488,0 0,1.17 2.19375,0 z"
         style="font-style:normal;font-variant:normal;font-weight:bold;font-stretch:normal;font-size:16.25px;line-height:100%;font-family:'Helvetica Neue';-inkscape-font-specification:'Helvetica Neue, Bold';text-align:start;writing-mode:lr-tb;text-anchor:start"
         id="path8454" />
    </g>
    <path
       style="opacity:1;fill:#000000;fill-opacity:1;stroke:none;stroke-width:1.53581619;stroke-miterlimit:4;stroke-dasharray:none;stroke-dashoffset:0;stroke-opacity:1"
       d="m 483.15156,773.54617 c -0.4935,0 -0.89057,0.39707 -0.89057,0.89057 l 0,27.30945 c 0,0.4935 0.39707,0.89057 0.89057,0.89057 l 1.36393,0 13.96296,0 3.14508,0 0,-9.17103 -0.0209,0 0.0209,-0.0209 -1.12725,-1.12725 0,-1.8527 1.12725,0 0,-3.99382 -0.022,0 0.022,-0.022 -2.2545,-2.25451 0,-9.75777 c 0,-0.49351 -0.39707,-0.89058 -0.89058,-0.89058 l -15.32689,0 z"
       id="rect8283"
       inkscape:connector-curvature="0" />
    <g
       style="font-style:normal;font-weight:normal;font-size:40px;line-height:125%;font-family:sans-serif;letter-spacing:0px;word-spacing:0px;fill:#ffffff;fill-opacity:1;stroke:none;stroke-width:1px;stroke-linecap:butt;stroke-linejoin:miter;stroke-opacity:1"
       id="text8320">
      <path
         d="m 486.98737,783.00909 q 1.59301,-1.46118 2.41699,-2.52685 0.83496,-1.06568 1.24145,-2.0105 l 0.50537,0 q 0.51636,1.08765 1.32935,2.10938 0.82397,1.02172 2.40601,2.43896 l 0,0.84595 q -2.20826,-1.03272 -3.39478,-2.16431 l 0,16.19385 -1.10962,0 0,-16.19385 q -1.05469,0.83496 -1.58203,1.16455 -0.51636,0.32959 -1.81274,0.97779 l 0,-0.83497 z"
         style="font-style:normal;font-variant:normal;font-weight:normal;font-stretch:normal;font-size:22.5px;font-family:'Helvetica Neue';-inkscape-font-specification:'Helvetica Neue'"
         id="path8500" />
    </g>
    <rect
       y="660.33838"
       x="532.62317"
       height="151.79089"
       width="112.81452"
       id="rect8169"
       style="opacity:1;fill:none;fill-opacity:1;stroke:#000000;stroke-width:1;stroke-miterlimit:4;stroke-dasharray:none;stroke-dashoffset:0;stroke-opacity:1" />
    <path
       style="opacity:1;fill:#000000;fill-opacity:1;stroke:none;stroke-width:1;stroke-miterlimit:4;stroke-dasharray:none;stroke-dashoffset:0;stroke-opacity:1"
       d="m 569.35235,750.25368 0,52.47329 39.3561,0 0,-44.61672 -7.85567,-7.85657 -31.50043,0 z"
       id="rect8304"
       inkscape:connector-curvature="0" />
    <g
       transform="matrix(0,-1,1,0,0,0)"
       style="font-style:normal;font-variant:normal;font-weight:bold;font-stretch:normal;font-size:22.5px;line-height:100%;font-family:'Helvetica Neue';-inkscape-font-specification:'Helvetica Neue Bold';letter-spacing:0px;word-spacing:0px;fill:#000000;fill-opacity:1;stroke:none;stroke-width:1px;stroke-linecap:butt;stroke-linejoin:miter;stroke-opacity:1"
       id="text8314">
      <path
         d="m -739.33297,574.99851 0,11.6025 2.55125,0 0,-3.7375 1.4625,-1.47875 3.49375,5.21625 3.20125,0 -4.9725,-7.02 4.53375,-4.5825 -3.185,0 -4.53375,4.81 0,-4.81 -2.55125,0 z"
         style="font-style:normal;font-variant:normal;font-weight:bold;font-stretch:normal;font-size:16.25px;line-height:100%;font-family:'Helvetica Neue';-inkscape-font-specification:'Helvetica Neue, Bold';text-align:start;writing-mode:lr-tb;text-anchor:start"
         id="path8403" />
      <path
         d="m -727.9628,580.78351 q 0.0488,-0.8125 0.40625,-1.34875 0.3575,-0.53625 0.91,-0.86125 0.5525,-0.325 1.235,-0.455 0.69875,-0.14625 1.3975,-0.14625 0.63375,0 1.28375,0.0975 0.65,0.0813 1.18625,0.34125 0.53625,0.26 0.8775,0.73125 0.34125,0.455 0.34125,1.21875 l 0,4.37125 q 0,0.56875 0.065,1.08875 0.065,0.52 0.2275,0.78 l -2.34,0 q -0.065,-0.195 -0.11375,-0.39 -0.0325,-0.21125 -0.0488,-0.4225 -0.5525,0.56875 -1.3,0.79625 -0.7475,0.2275 -1.5275,0.2275 -0.60125,0 -1.12125,-0.14625 -0.52,-0.14625 -0.91,-0.455 -0.39,-0.30875 -0.6175,-0.78 -0.21125,-0.47125 -0.21125,-1.12125 0,-0.715 0.24375,-1.17 0.26,-0.47125 0.65,-0.7475 0.40625,-0.27625 0.91,-0.40625 0.52,-0.14625 1.04,-0.2275 0.52,-0.0812 1.02375,-0.13 0.50375,-0.0488 0.89375,-0.14625 0.39,-0.0975 0.6175,-0.27625 0.2275,-0.195 0.21125,-0.5525 0,-0.37375 -0.13,-0.585 -0.11375,-0.2275 -0.325,-0.34125 -0.195,-0.13 -0.47125,-0.1625 -0.26,-0.0487 -0.56875,-0.0487 -0.6825,0 -1.0725,0.2925 -0.39,0.2925 -0.455,0.975 l -2.3075,0 z m 5.33,1.70625 q -0.14625,0.13 -0.37375,0.21125 -0.21125,0.065 -0.47125,0.11375 -0.24375,0.0488 -0.52,0.0813 -0.27625,0.0325 -0.5525,0.0812 -0.26,0.0488 -0.52,0.13 -0.24375,0.0812 -0.43875,0.2275 -0.17875,0.13 -0.2925,0.34125 -0.11375,0.21125 -0.11375,0.53625 0,0.30875 0.11375,0.52 0.11375,0.21125 0.30875,0.34125 0.195,0.11375 0.455,0.1625 0.26,0.0488 0.53625,0.0488 0.6825,0 1.05625,-0.2275 0.37375,-0.2275 0.5525,-0.53625 0.17875,-0.325 0.21125,-0.65 0.0488,-0.325 0.0488,-0.52 l 0,-0.86125 z"
         style="font-style:normal;font-variant:normal;font-weight:bold;font-stretch:normal;font-size:16.25px;line-height:100%;font-family:'Helvetica Neue';-inkscape-font-specification:'Helvetica Neue, Bold';text-align:start;writing-mode:lr-tb;text-anchor:start"
         id="path8405" />
      <path
         d="m -718.56598,578.19976 0,8.40125 2.3075,0 0,-3.78625 q 0,-0.56875 0.11375,-1.05625 0.11375,-0.4875 0.37375,-0.845 0.27625,-0.37375 0.715,-0.585 0.43875,-0.21125 1.0725,-0.21125 0.21125,0 0.43875,0.0325 0.2275,0.0163 0.39,0.0488 l 0,-2.145 q -0.27625,-0.0812 -0.50375,-0.0812 -0.43875,0 -0.845,0.13 -0.40625,0.13 -0.76375,0.37375 -0.3575,0.2275 -0.63375,0.56875 -0.27625,0.325 -0.43875,0.715 l -0.0325,0 0,-1.56 -2.19375,0 z"
         style="font-style:normal;font-variant:normal;font-weight:bold;font-stretch:normal;font-size:16.25px;line-height:100%;font-family:'Helvetica Neue';-inkscape-font-specification:'Helvetica Neue, Bold';text-align:start;writing-mode:lr-tb;text-anchor:start"
         id="path8407" />
      <path
         d="m -709.29333,578.19976 0,-2.51875 -2.3075,0 0,2.51875 -1.3975,0 0,1.54375 1.3975,0 0,4.95625 q 0,0.63375 0.21125,1.02375 0.21125,0.39 0.56875,0.60125 0.37375,0.21125 0.845,0.27625 0.4875,0.0813 1.02375,0.0813 0.34125,0 0.69875,-0.0163 0.3575,-0.0163 0.65,-0.065 l 0,-1.7875 q -0.1625,0.0325 -0.34125,0.0488 -0.17875,0.0163 -0.37375,0.0163 -0.585,0 -0.78,-0.195 -0.195,-0.195 -0.195,-0.78 l 0,-4.16 1.69,0 0,-1.54375 -1.69,0 z"
         style="font-style:normal;font-variant:normal;font-weight:bold;font-stretch:normal;font-size:16.25px;line-height:100%;font-family:'Helvetica Neue';-inkscape-font-specification:'Helvetica Neue, Bold';text-align:start;writing-mode:lr-tb;text-anchor:start"
         id="path8409" />
      <path
         d="m -706.60293,580.78351 q 0.0488,-0.8125 0.40625,-1.34875 0.3575,-0.53625 0.91,-0.86125 0.5525,-0.325 1.235,-0.455 0.69875,-0.14625 1.3975,-0.14625 0.63375,0 1.28375,0.0975 0.65,0.0813 1.18625,0.34125 0.53625,0.26 0.8775,0.73125 0.34125,0.455 0.34125,1.21875 l 0,4.37125 q 0,0.56875 0.065,1.08875 0.065,0.52 0.2275,0.78 l -2.34,0 q -0.065,-0.195 -0.11375,-0.39 -0.0325,-0.21125 -0.0488,-0.4225 -0.5525,0.56875 -1.3,0.79625 -0.7475,0.2275 -1.5275,0.2275 -0.60125,0 -1.12125,-0.14625 -0.52,-0.14625 -0.91,-0.455 -0.39,-0.30875 -0.6175,-0.78 -0.21125,-0.47125 -0.21125,-1.12125 0,-0.715 0.24375,-1.17 0.26,-0.47125 0.65,-0.7475 0.40625,-0.27625 0.91,-0.40625 0.52,-0.14625 1.04,-0.2275 0.52,-0.0812 1.02375,-0.13 0.50375,-0.0488 0.89375,-0.14625 0.39,-0.0975 0.6175,-0.27625 0.2275,-0.195 0.21125,-0.5525 0,-0.37375 -0.13,-0.585 -0.11375,-0.2275 -0.325,-0.34125 -0.195,-0.13 -0.47125,-0.1625 -0.26,-0.0487 -0.56875,-0.0487 -0.6825,0 -1.0725,0.2925 -0.39,0.2925 -0.455,0.975 l -2.3075,0 z m 5.33,1.70625 q -0.14625,0.13 -0.37375,0.21125 -0.21125,0.065 -0.47125,0.11375 -0.24375,0.0488 -0.52,0.0813 -0.27625,0.0325 -0.5525,0.0812 -0.26,0.0488 -0.52,0.13 -0.24375,0.0812 -0.43875,0.2275 -0.17875,0.13 -0.2925,0.34125 -0.11375,0.21125 -0.11375,0.53625 0,0.30875 0.11375,0.52 0.11375,0.21125 0.30875,0.34125 0.195,0.11375 0.455,0.1625 0.26,0.0488 0.53625,0.0488 0.6825,0 1.05625,-0.2275 0.37375,-0.2275 0.5525,-0.53625 0.17875,-0.325 0.21125,-0.65 0.0488,-0.325 0.0488,-0.52 l 0,-0.86125 z"
         style="font-style:normal;font-variant:normal;font-weight:bold;font-stretch:normal;font-size:16.25px;line-height:100%;font-family:'Helvetica Neue';-inkscape-font-specification:'Helvetica Neue, Bold';text-align:start;writing-mode:lr-tb;text-anchor:start"
         id="path8411" />
      <path
         d="m -740.09672,601.11226 0,1.73875 7.71875,0 0,-1.73875 -4.68,0 4.37125,-4.92375 0,-1.73875 -7.085,0 0,1.73875 4.04625,0 -4.37125,4.92375 z"
         style="font-style:normal;font-variant:normal;font-weight:bold;font-stretch:normal;font-size:16.25px;line-height:100%;font-family:'Helvetica Neue';-inkscape-font-specification:'Helvetica Neue, Bold';text-align:start;writing-mode:lr-tb;text-anchor:start"
         id="path8413" />
      <path
         d="m -726.15549,595.99351 0,6.8575 2.3075,0 0,-6.8575 1.5925,0 0,-1.54375 -1.5925,0 0,-0.50375 q 0,-0.52 0.195,-0.73125 0.21125,-0.2275 0.6825,-0.2275 0.43875,0 0.845,0.0488 l 0,-1.7225 q -0.2925,-0.0162 -0.60125,-0.0325 -0.30875,-0.0325 -0.6175,-0.0325 -1.41375,0 -2.1125,0.715 -0.69875,0.715 -0.69875,1.83625 l 0,0.65 -1.38125,0 0,1.54375 1.38125,0 z"
         style="font-style:normal;font-variant:normal;font-weight:bold;font-stretch:normal;font-size:16.25px;line-height:100%;font-family:'Helvetica Neue';-inkscape-font-specification:'Helvetica Neue, Bold';text-align:start;writing-mode:lr-tb;text-anchor:start"
         id="path8415" />
      <path
         d="m -719.1845,598.65851 q 0,-0.50375 0.0975,-0.99125 0.0975,-0.4875 0.325,-0.86125 0.24375,-0.37375 0.63375,-0.60125 0.39,-0.24375 0.975,-0.24375 0.585,0 0.975,0.24375 0.40625,0.2275 0.63375,0.60125 0.24375,0.37375 0.34125,0.86125 0.0975,0.4875 0.0975,0.99125 0,0.50375 -0.0975,0.99125 -0.0975,0.47125 -0.34125,0.86125 -0.2275,0.37375 -0.63375,0.60125 -0.39,0.2275 -0.975,0.2275 -0.585,0 -0.975,-0.2275 -0.39,-0.2275 -0.63375,-0.60125 -0.2275,-0.39 -0.325,-0.86125 -0.0975,-0.4875 -0.0975,-0.99125 z m -2.3075,0 q 0,1.0075 0.30875,1.82 0.30875,0.8125 0.8775,1.3975 0.56875,0.56875 1.365,0.8775 0.79625,0.30875 1.7875,0.30875 0.99125,0 1.7875,-0.30875 0.8125,-0.30875 1.38125,-0.8775 0.56875,-0.585 0.8775,-1.3975 0.30875,-0.8125 0.30875,-1.82 0,-1.0075 -0.30875,-1.82 -0.30875,-0.82875 -0.8775,-1.3975 -0.56875,-0.585 -1.38125,-0.89375 -0.79625,-0.325 -1.7875,-0.325 -0.99125,0 -1.7875,0.325 -0.79625,0.30875 -1.365,0.89375 -0.56875,0.56875 -0.8775,1.3975 -0.30875,0.8125 -0.30875,1.82 z"
         style="font-style:normal;font-variant:normal;font-weight:bold;font-stretch:normal;font-size:16.25px;line-height:100%;font-family:'Helvetica Neue';-inkscape-font-specification:'Helvetica Neue, Bold';text-align:start;writing-mode:lr-tb;text-anchor:start"
         id="path8417" />
      <path
         d="m -705.9509,593.55601 -1.5925,0 0.50375,-2.3075 2.405,0 -1.31625,2.3075 z m -2.45375,0.89375 1.69,0 0,1.54375 -1.69,0 0,4.16 q 0,0.585 0.195,0.78 0.195,0.195 0.78,0.195 0.195,0 0.37375,-0.0163 0.17875,-0.0163 0.34125,-0.0488 l 0,1.80375 q -0.2925,0.0488 -0.65,0.065 -0.3575,0.0163 -0.69875,0.0163 -0.53625,0 -1.02375,-0.0813 -0.47125,-0.065 -0.845,-0.27625 -0.3575,-0.2275 -0.56875,-0.6175 -0.21125,-0.39 -0.21125,-1.02375 l 0,-4.95625 -1.3975,0 0,-1.54375 1.3975,0 0,-2.51875 2.3075,0 0,2.51875 z"
         style="font-style:normal;font-variant:normal;font-weight:bold;font-stretch:normal;font-size:16.25px;line-height:100%;font-family:'Helvetica Neue';-inkscape-font-specification:'Helvetica Neue, Bold';text-align:start;writing-mode:lr-tb;text-anchor:start"
         id="path8419" />
      <path
         d="m -705.71426,597.03351 q 0.0487,-0.8125 0.40625,-1.34875 0.3575,-0.53625 0.91,-0.86125 0.5525,-0.325 1.235,-0.455 0.69875,-0.14625 1.3975,-0.14625 0.63375,0 1.28375,0.0975 0.65,0.0813 1.18625,0.34125 0.53625,0.26 0.8775,0.73125 0.34125,0.455 0.34125,1.21875 l 0,4.37125 q 0,0.56875 0.065,1.08875 0.065,0.52 0.2275,0.78 l -2.34,0 q -0.065,-0.195 -0.11375,-0.39 -0.0325,-0.21125 -0.0487,-0.4225 -0.5525,0.56875 -1.3,0.79625 -0.7475,0.2275 -1.5275,0.2275 -0.60125,0 -1.12125,-0.14625 -0.52,-0.14625 -0.91,-0.455 -0.39,-0.30875 -0.6175,-0.78 -0.21125,-0.47125 -0.21125,-1.12125 0,-0.715 0.24375,-1.17 0.26,-0.47125 0.65,-0.7475 0.40625,-0.27625 0.91,-0.40625 0.52,-0.14625 1.04,-0.2275 0.52,-0.0812 1.02375,-0.13 0.50375,-0.0488 0.89375,-0.14625 0.39,-0.0975 0.6175,-0.27625 0.2275,-0.195 0.21125,-0.5525 0,-0.37375 -0.13,-0.585 -0.11375,-0.2275 -0.325,-0.34125 -0.195,-0.13 -0.47125,-0.1625 -0.26,-0.0487 -0.56875,-0.0487 -0.6825,0 -1.0725,0.2925 -0.39,0.2925 -0.455,0.975 l -2.3075,0 z m 5.33,1.70625 q -0.14625,0.13 -0.37375,0.21125 -0.21125,0.065 -0.47125,0.11375 -0.24375,0.0488 -0.52,0.0813 -0.27625,0.0325 -0.5525,0.0812 -0.26,0.0488 -0.52,0.13 -0.24375,0.0812 -0.43875,0.2275 -0.17875,0.13 -0.2925,0.34125 -0.11375,0.21125 -0.11375,0.53625 0,0.30875 0.11375,0.52 0.11375,0.21125 0.30875,0.34125 0.195,0.11375 0.455,0.1625 0.26,0.0488 0.53625,0.0488 0.6825,0 1.05625,-0.2275 0.37375,-0.2275 0.5525,-0.53625 0.17875,-0.325 0.21125,-0.65 0.0487,-0.325 0.0487,-0.52 l 0,-0.86125 z m 1.57625,-8.645 -2.64875,2.87625 -1.60875,0 1.7225,-2.87625 2.535,0 z"
         style="font-style:normal;font-variant:normal;font-weight:bold;font-stretch:normal;font-size:16.25px;line-height:100%;font-family:'Helvetica Neue';-inkscape-font-specification:'Helvetica Neue, Bold';text-align:start;writing-mode:lr-tb;text-anchor:start"
         id="path8421" />
      <path
         d="m -696.1062,591.24851 0,11.6025 2.3075,0 0,-2.8925 0.89375,-0.86125 2.3075,3.75375 2.795,0 -3.52625,-5.31375 3.16875,-3.0875 -2.73,0 -2.90875,3.0225 0,-6.22375 -2.3075,0 z"
         style="font-style:normal;font-variant:normal;font-weight:bold;font-stretch:normal;font-size:16.25px;line-height:100%;font-family:'Helvetica Neue';-inkscape-font-specification:'Helvetica Neue, Bold';text-align:start;writing-mode:lr-tb;text-anchor:start"
         id="path8423" />
      <path
         d="m -679.10514,602.85101 0,-8.40125 -2.3075,0 0,4.40375 q 0,1.28375 -0.4225,1.8525 -0.4225,0.5525 -1.365,0.5525 -0.82875,0 -1.15375,-0.50375 -0.325,-0.52 -0.325,-1.56 l 0,-4.745 -2.3075,0 0,5.1675 q 0,0.78 0.13,1.43 0.14625,0.63375 0.4875,1.08875 0.34125,0.43875 0.92625,0.6825 0.60125,0.24375 1.5275,0.24375 0.73125,0 1.43,-0.325 0.69875,-0.325 1.1375,-1.05625 l 0.0487,0 0,1.17 2.19375,0 z"
         style="font-style:normal;font-variant:normal;font-weight:bold;font-stretch:normal;font-size:16.25px;line-height:100%;font-family:'Helvetica Neue';-inkscape-font-specification:'Helvetica Neue, Bold';text-align:start;writing-mode:lr-tb;text-anchor:start"
         id="path8425" />
    </g>
    <g
       style="font-style:normal;font-weight:normal;font-size:40px;line-height:125%;font-family:sans-serif;letter-spacing:0px;word-spacing:0px;fill:#ffffff;fill-opacity:1;stroke:none;stroke-width:1px;stroke-linecap:butt;stroke-linejoin:miter;stroke-opacity:1"
       id="text8328">
      <path
         d="m 585.08081,783.0993 q 1.59302,-1.46118 2.41699,-2.52685 0.83496,-1.06568 1.24146,-2.0105 l 0.50537,0 q 0.51636,1.08765 1.32934,2.10938 0.82398,1.02172 2.40601,2.43896 l 0,0.84595 q -2.20825,-1.03272 -3.39477,-2.16431 l 0,16.19385 -1.10962,0 0,-16.19385 q -1.05469,0.83496 -1.58204,1.16455 -0.51635,0.32959 -1.81274,0.97779 l 0,-0.83497 z"
         style="font-style:normal;font-variant:normal;font-weight:normal;font-stretch:normal;font-size:22.5px;font-family:'Helvetica Neue';-inkscape-font-specification:'Helvetica Neue'"
         id="path8497" />
    </g>
  </g>
</svg>
